In.Time.(2011) R5 DVDRip H264 Proper Audio AC3 NL Subs
.
Subs: Vobsubs
.
[IMG]http://img213.imageshack.us/img213/2905/75622.jpg[/IMG]
.
Verenigde Staten
Sciencefiction / Thriller
109 minuten

geregisseerd door Andrew Niccol
met Amanda Seyfried, Justin Timberlake en Olivia Wilde

Welkom in een wereld waar tijd het ultieme betaalmiddel is geworden. Het verouderingsproces stopt op de leeftijd van 25 jaar, maar er zit een addertje onder het gras: je bent genetisch gemanipuleerd om nog ÚÚn jaar te leven, tenzij je je nakende dood kan afkopen. De rijken ôverdienenö tientallen jaren per keer (en blijven 25 jaar), waardoor ze nagenoeg onsterfelijk worden, terwijl de rest genoeg uren bij elkaar smeekt, leent of steelt om de dag door te komen. Wanneer een jonge man (Timberlake) in het bezit komt van een fortuin aan tijd, wordt hij valselijk beschuldigd van moord. Hij wordt gedwongen op de vlucht te slaan met een mooie gijzelaar (Seyfried). De liefde van het duo, dat van minuut tot minuut leeft, wordt een sterk wapen in hun oorlog tegen het systeem.

Momenteel te zien in 44 bioscopen 
. 
http://www.moviemeter.nl/film/75622
.
PLOT
.
In a future where people stop aging at 25, but are engineered to live only one more year, having the means to buy your way out of the situation is a shot at immortal youth. Here, Will Salas finds himself accused of murder and on the run with a hostage - a connection that becomes an important part of the way against the system. 
. 
http://www.imdb.com/title/tt1637688/
.
INFO
.
Format/Info                      : Advanced Video Codec
Codec ID                         : H264
Duration                         : 1h 15mn
Bit rate                         : 1 498 Kbps
Width                            : 720 pixels
Height                           : 308 pixels
Display aspect ratio             : 2.35:1
Frame rate                       : 25.000 fps
Color space                      : YUV
Chroma subsampling               : 4:2:0
Bits/(Pixel*Frame)               : 0.270
Stream size                      : 813 MiB (58%)

Audio
ID                               : 1
Format                           : AC-3
Format/Info                      : Audio Coding 3
Mode extension                   : CM (complete main)
Codec ID                         : 2000
Duration                         : 1h 15mn
Bit rate mode                    : Constant
Bit rate                         : 384 Kbps
Channel(s)                       : 6 channels
Channel positions                : Front: L C R, Side: L R, LFE
Sampling rate                    : 48.0 KHz
Bit depth                        : 16 bits
Stream size                      : 209 MiB (15%)
Alignment                        : Aligned on interleaves
Interleave, duration             : 32 ms (0.80 video frame)
Interleave, preload duration     : 32 ms
.
Enjoy
